# xmcd
#
# Track frame offsets: 
#        150
#        18153
#        36017
#        53945
#        72163
#        90620
#        106490
#        123626
#        142630
#        160555
#        177340
#
# Disc length: 2665 seconds
#
# Revision: 0
# Processed by: cddbd v1.5.2PL0 Copyright (c) Steve Scherf et al.
# Submitted via: ExactAudioCopy v1.0b1
#
DISCID=860a670b
DTITLE=Larry Hancock - Borderline
DYEAR=1988
DGENRE=R&B
TTITLE0=Borderline
TTITLE1=Time Out For Love
TTITLE2=Too Much
TTITLE3=After All This Time
TTITLE4=Sweat Hard Work
TTITLE5=Sweet Persuation
TTITLE6=I Can Fly
TTITLE7=Outside Looking In
TTITLE8=A Universal Language
TTITLE9=Celebrate Love
TTITLE10=We Never Called It Love
EXTD=
EXTT0=
EXTT1=
EXTT2=
EXTT3=
EXTT4=
EXTT5=
EXTT6=
EXTT7=
EXTT8=
EXTT9=
EXTT10=
PLAYORDER=
